<svg xmlns="http://www.w3.org/2000/svg" version="1.1" xmlns:xlink="http://www.w3.org/1999/xlink" xmlns:svgjs="http://svgjs.dev/svgjs" width="1500" height="1500" viewBox="0 0 1500 1500"><g transform="matrix(1,0,0,1,-0.21332335329316265,-0.21332335329350371)"><svg viewBox="0 0 334 334" data-background-color="#ffffff" preserveAspectRatio="xMidYMid meet" height="1500" width="1500" xmlns="http://www.w3.org/2000/svg" xmlns:xlink="http://www.w3.org/1999/xlink"><g id="tight-bounds" transform="matrix(1,0,0,1,0.04749999999998522,0.04750000000001364)"><svg viewBox="0 0 333.90454557049503 333.90454557049503" height="333.90454557049503" width="333.90454557049503"><g><svg></svg></g><g><svg viewBox="0 0 333.90454557049503 333.90454557049503" height="333.90454557049503" width="333.90454557049503"><g><path d="M0 166.952c0-92.205 74.747-166.952 166.952-166.952 92.205 0 166.952 74.747 166.953 166.952 0 92.205-74.747 166.952-166.953 166.953-92.205 0-166.952-74.747-166.952-166.953zM166.952 329.712c89.89 0 162.76-72.87 162.76-162.76 0-89.89-72.87-162.76-162.76-162.76-89.89 0-162.76 72.87-162.76 162.76 0 89.89 72.87 162.76 162.76 162.76z" data-fill-palette-color="tertiary" fill="#d52814" stroke="transparent"></path><ellipse rx="160.27418187383762" ry="160.27418187383762" cx="166.95227278524752" cy="166.95227278524752" fill="#d52814" stroke="transparent" stroke-width="0" fill-opacity="1" data-fill-palette-color="tertiary"></ellipse></g><g transform="matrix(1,0,0,1,81.78983454269904,71.17305217166896)"><svg viewBox="0 0 170.32487648509695 191.55844122715712" height="191.55844122715712" width="170.32487648509695"><g><svg viewBox="0 0 170.32487648509695 191.55844122715712" height="191.55844122715712" width="170.32487648509695"><g><svg viewBox="0 0 213.1584412271571 239.7318558423117" height="191.55844122715712" width="170.32487648509695"><g transform="matrix(1,0,0,1,0,144.85457816070334)"><svg viewBox="0 0 213.1584412271571 94.87727768160833" height="94.87727768160833" width="213.1584412271571"><g id="textblocktransform"><svg viewBox="0 0 213.1584412271571 94.87727768160833" height="94.87727768160833" width="213.1584412271571" id="textblock"><g><svg viewBox="0 0 213.1584412271571 58.1769447327158" height="58.1769447327158" width="213.1584412271571"><g transform="matrix(1,0,0,1,0,0)"><svg width="213.1584412271571" viewBox="0.6 -36.5 135.74 37.05" height="58.1769447327158" data-palette-color="#ebefd8"><path d="M0.6-1.65L1.75-5.3Q2.7-4.65 4.38-4.08 6.05-3.5 8.35-3.5L8.35-3.5Q10.7-3.5 12.2-4.28 13.7-5.05 14.5-6.63 15.3-8.2 15.6-10.65 15.9-13.1 15.9-16.45L15.9-16.45 15.9-35.5 20.4-35.5 20.4-17.45Q20.4-13.5 20-10.2 19.6-6.9 18.4-4.48 17.2-2.05 14.83-0.75 12.45 0.55 8.5 0.55L8.5 0.55Q6 0.55 4.1 0 2.2-0.55 0.6-1.65L0.6-1.65ZM38.9 0.5L38.9 0.5Q35.95 0.5 33.52-0.58 31.1-1.65 29.32-3.53 27.55-5.4 26.57-7.85 25.6-10.3 25.6-13.05L25.6-13.05Q25.6-16.75 27.3-19.8 29-22.85 32.02-24.7 35.05-26.55 38.95-26.55L38.95-26.55Q42.9-26.55 45.82-24.68 48.75-22.8 50.37-19.78 52-16.75 52-13.25L52-13.25Q52-12.75 51.97-12.28 51.95-11.8 51.9-11.55L51.9-11.55 30.25-11.55Q30.45-9 31.67-7.03 32.9-5.05 34.85-3.93 36.8-2.8 39.05-2.8L39.05-2.8Q41.45-2.8 43.57-4 45.7-5.2 46.5-7.15L46.5-7.15 50.3-6.1Q49.45-4.2 47.77-2.7 46.1-1.2 43.82-0.35 41.55 0.5 38.9 0.5ZM30.1-14.6L30.1-14.6 47.9-14.6Q47.7-17.15 46.45-19.1 45.2-21.05 43.25-22.15 41.3-23.25 38.95-23.25L38.95-23.25Q36.65-23.25 34.7-22.15 32.75-21.05 31.52-19.1 30.3-17.15 30.1-14.6ZM65.84 0.5L65.84 0.5Q62.59 0.5 59.74-0.58 56.89-1.65 54.84-3.8L54.84-3.8 56.55-6.9Q58.8-4.8 61.05-3.9 63.3-3 65.64-3L65.64-3Q68.34-3 70.05-4.03 71.75-5.05 71.75-7.05L71.75-7.05Q71.75-8.5 70.87-9.2 70-9.9 68.39-10.38 66.8-10.85 64.59-11.45L64.59-11.45Q61.89-12.25 60.05-13.15 58.2-14.05 57.24-15.4 56.3-16.75 56.3-18.8L56.3-18.8Q56.3-21.3 57.59-23.03 58.89-24.75 61.17-25.65 63.45-26.55 66.34-26.55L66.34-26.55Q69.25-26.55 71.59-25.65 73.94-24.75 75.64-23L75.64-23 73.64-19.95Q72.09-21.55 70.25-22.33 68.39-23.1 66.09-23.1L66.09-23.1Q64.75-23.1 63.45-22.78 62.14-22.45 61.3-21.63 60.45-20.8 60.45-19.3L60.45-19.3Q60.45-18.05 61.12-17.32 61.8-16.6 63.12-16.1 64.44-15.6 66.34-15L66.34-15Q69.3-14.15 71.47-13.3 73.64-12.45 74.84-11.1 76.05-9.75 76.05-7.35L76.05-7.35Q76.05-3.65 73.25-1.58 70.44 0.5 65.84 0.5ZM81.04-10.45L81.04-10.45 81.04-26.1 85.44-26.1 85.44-11.3Q85.44-7.3 86.84-5.3 88.24-3.3 90.99-3.3L90.99-3.3Q92.79-3.3 94.47-4.08 96.14-4.85 97.49-6.3 98.84-7.75 99.59-9.75L99.59-9.75 99.59-26.1 103.99-26.1 103.99-5Q103.99-4.2 104.32-3.83 104.64-3.45 105.39-3.4L105.39-3.4 105.39 0Q104.64 0.1 104.22 0.13 103.79 0.15 103.39 0.15L103.39 0.15Q102.14 0.15 101.24-0.63 100.34-1.4 100.29-2.55L100.29-2.55 100.19-5.6Q98.49-2.7 95.62-1.1 92.74 0.5 89.34 0.5L89.34 0.5Q85.24 0.5 83.14-2.27 81.04-5.05 81.04-10.45ZM115.74 0L111.34 0 111.34-26.1 115.74-26.1 115.74 0ZM115.74-31L111.34-31 111.34-36.5 115.74-36.5 115.74-31ZM135.29-4.8L136.34-1.3Q135.79-1.05 134.84-0.65 133.89-0.25 132.64 0.05 131.39 0.35 129.99 0.35L129.99 0.35Q128.39 0.35 127.04-0.23 125.69-0.8 124.89-2.02 124.09-3.25 124.09-5.1L124.09-5.1 124.09-22.65 120.54-22.65 120.54-26.1 124.09-26.1 124.09-34.8 128.49-34.8 128.49-26.1 134.34-26.1 134.34-22.65 128.49-22.65 128.49-6.45Q128.59-5.05 129.44-4.38 130.29-3.7 131.44-3.7L131.44-3.7Q132.74-3.7 133.84-4.15 134.94-4.6 135.29-4.8L135.29-4.8Z" opacity="1" transform="matrix(1,0,0,1,0,0)" fill="#ebefd8" class="wordmark-text-0" data-fill-palette-color="quaternary" id="text-0"></path></svg></g></svg></g><g transform="matrix(1,0,0,1,0,71.91112513743641)"><svg viewBox="0 0 213.1584412271571 22.966152544171916" height="22.966152544171916" width="213.1584412271571"><g transform="matrix(1,0,0,1,0,0)"><svg width="213.1584412271571" viewBox="1.29 -36.04 338.96 36.53" height="22.966152544171916" data-palette-color="#ebefd8"><path d="M19.02-10.3L19.02-35.55 23.73-35.55 23.73-10.38Q23.73-5.27 20.67-2.39 17.6 0.49 12.5 0.49L12.5 0.49Q7.2 0.49 4.25-2.22 1.29-4.93 1.29-9.81L1.29-9.81 5.98-9.81Q5.98-6.76 7.65-5.05 9.33-3.34 12.5-3.34L12.5-3.34Q15.41-3.34 17.2-5.18 18.99-7.01 19.02-10.3L19.02-10.3ZM47.41 0L47.31-2.61Q44.68 0.49 39.57 0.49L39.57 0.49Q35.35 0.49 33.14-1.97 30.93-4.42 30.91-9.23L30.91-9.23 30.91-26.42 35.42-26.42 35.42-9.35Q35.42-3.34 40.31-3.34L40.31-3.34Q45.48-3.34 47.19-7.2L47.19-7.2 47.19-26.42 51.71-26.42 51.71 0 47.41 0ZM73.95-7.01L73.95-7.01Q73.95-8.84 72.57-9.85 71.19-10.86 67.76-11.6 64.33-12.33 62.31-13.35 60.3-14.38 59.33-15.8 58.37-17.21 58.37-19.17L58.37-19.17Q58.37-22.41 61.12-24.66 63.86-26.9 68.13-26.9L68.13-26.9Q72.63-26.9 75.42-24.58 78.22-22.27 78.22-18.65L78.22-18.65 73.68-18.65Q73.68-20.51 72.1-21.85 70.53-23.19 68.13-23.19L68.13-23.19Q65.67-23.19 64.28-22.12 62.89-21.04 62.89-19.31L62.89-19.31Q62.89-17.68 64.18-16.85 65.47-16.02 68.85-15.26 72.24-14.5 74.34-13.45 76.44-12.4 77.45-10.93 78.46-9.45 78.46-7.32L78.46-7.32Q78.46-3.78 75.63-1.65 72.8 0.49 68.28 0.49L68.28 0.49Q65.11 0.49 62.67-0.63 60.22-1.76 58.85-3.77 57.47-5.79 57.47-8.13L57.47-8.13 61.98-8.13Q62.1-5.86 63.8-4.53 65.5-3.2 68.28-3.2L68.28-3.2Q70.84-3.2 72.39-4.24 73.95-5.27 73.95-7.01ZM85.95-32.81L90.47-32.81 90.47-26.42 95.4-26.42 95.4-22.92 90.47-22.92 90.47-6.54Q90.47-4.96 91.13-4.16 91.79-3.37 93.38-3.37L93.38-3.37Q94.16-3.37 95.52-3.66L95.52-3.66 95.52 0Q93.74 0.49 92.06 0.49L92.06 0.49Q89.03 0.49 87.49-1.34 85.95-3.17 85.95-6.54L85.95-6.54 85.95-22.92 81.14-22.92 81.14-26.42 85.95-26.42 85.95-32.81ZM133.85-20.26L133.85-16.43 118.44-16.43 118.44-3.83 136.34-3.83 136.34 0 113.76 0 113.76-35.55 136.1-35.55 136.1-31.69 118.44-31.69 118.44-20.26 133.85-20.26ZM162.51 0L157.77 0Q157.38-0.78 157.14-2.78L157.14-2.78Q153.99 0.49 149.62 0.49L149.62 0.49Q145.71 0.49 143.21-1.72 140.71-3.93 140.71-7.32L140.71-7.32Q140.71-11.45 143.84-13.73 146.98-16.02 152.67-16.02L152.67-16.02 157.07-16.02 157.07-18.09Q157.07-20.46 155.65-21.86 154.23-23.27 151.47-23.27L151.47-23.27Q149.06-23.27 147.42-22.05 145.79-20.83 145.79-19.09L145.79-19.09 141.24-19.09Q141.24-21.07 142.65-22.91 144.05-24.76 146.46-25.83 148.86-26.9 151.74-26.9L151.74-26.9Q156.31-26.9 158.9-24.62 161.48-22.34 161.58-18.33L161.58-18.33 161.58-6.18Q161.58-2.54 162.51-0.39L162.51-0.39 162.51 0ZM150.28-3.44L150.28-3.44Q152.4-3.44 154.31-4.54 156.21-5.64 157.07-7.4L157.07-7.4 157.07-12.82 153.53-12.82Q145.22-12.82 145.22-7.96L145.22-7.96Q145.22-5.83 146.64-4.64 148.06-3.44 150.28-3.44ZM184.04-7.01L184.04-7.01Q184.04-8.84 182.66-9.85 181.28-10.86 177.85-11.6 174.42-12.33 172.41-13.35 170.39-14.38 169.43-15.8 168.46-17.21 168.46-19.17L168.46-19.17Q168.46-22.41 171.21-24.66 173.96-26.9 178.23-26.9L178.23-26.9Q182.72-26.9 185.52-24.58 188.31-22.27 188.31-18.65L188.31-18.65 183.77-18.65Q183.77-20.51 182.2-21.85 180.62-23.19 178.23-23.19L178.23-23.19Q175.76-23.19 174.37-22.12 172.98-21.04 172.98-19.31L172.98-19.31Q172.98-17.68 174.27-16.85 175.57-16.02 178.95-15.26 182.33-14.5 184.43-13.45 186.53-12.4 187.54-10.93 188.56-9.45 188.56-7.32L188.56-7.32Q188.56-3.78 185.72-1.65 182.89 0.49 178.38 0.49L178.38 0.49Q175.2 0.49 172.76-0.63 170.32-1.76 168.94-3.77 167.56-5.79 167.56-8.13L167.56-8.13 172.08-8.13Q172.2-5.86 173.9-4.53 175.59-3.2 178.38-3.2L178.38-3.2Q180.94-3.2 182.49-4.24 184.04-5.27 184.04-7.01ZM205.4 0.49L205.4 0.49Q200.03 0.49 196.66-3.04 193.29-6.57 193.29-12.48L193.29-12.48 193.29-13.31Q193.29-17.24 194.79-20.32 196.29-23.41 198.99-25.16 201.69-26.9 204.84-26.9L204.84-26.9Q209.99-26.9 212.85-23.51 215.7-20.12 215.7-13.79L215.7-13.79 215.7-11.91 197.81-11.91Q197.9-8.01 200.09-5.6 202.27-3.2 205.64-3.2L205.64-3.2Q208.04-3.2 209.7-4.17 211.36-5.15 212.6-6.76L212.6-6.76 215.36-4.61Q212.04 0.49 205.4 0.49ZM204.84-23.19L204.84-23.19Q202.1-23.19 200.25-21.2 198.39-19.21 197.95-15.63L197.95-15.63 211.19-15.63 211.19-15.97Q210.99-19.41 209.33-21.3 207.67-23.19 204.84-23.19ZM244.48-15.84L244.48-15.84Q238.45-17.58 235.7-20.1 232.96-22.63 232.96-26.34L232.96-26.34Q232.96-30.54 236.32-33.29 239.67-36.04 245.04-36.04L245.04-36.04Q248.71-36.04 251.57-34.62 254.44-33.2 256.02-30.71 257.59-28.22 257.59-25.27L257.59-25.27 252.88-25.27Q252.88-28.49 250.83-30.33 248.78-32.18 245.04-32.18L245.04-32.18Q241.58-32.18 239.64-30.65 237.69-29.13 237.69-26.42L237.69-26.42Q237.69-24.24 239.54-22.74 241.38-21.24 245.81-20 250.24-18.75 252.75-17.25 255.25-15.75 256.46-13.75 257.67-11.74 257.67-9.03L257.67-9.03Q257.67-4.71 254.3-2.11 250.93 0.49 245.29 0.49L245.29 0.49Q241.63 0.49 238.45-0.92 235.28-2.32 233.56-4.76 231.84-7.2 231.84-10.3L231.84-10.3 236.55-10.3Q236.55-7.08 238.93-5.21 241.31-3.34 245.29-3.34L245.29-3.34Q249-3.34 250.98-4.86 252.95-6.37 252.95-8.98 252.95-11.6 251.12-13.02 249.29-14.45 244.48-15.84ZM279.37 0L279.27-2.61Q276.63 0.49 271.53 0.49L271.53 0.49Q267.31 0.49 265.1-1.97 262.89-4.42 262.86-9.23L262.86-9.23 262.86-26.42 267.38-26.42 267.38-9.35Q267.38-3.34 272.26-3.34L272.26-3.34Q277.44-3.34 279.15-7.2L279.15-7.2 279.15-26.42 283.66-26.42 283.66 0 279.37 0ZM295.43-26.42L295.43 0 290.91 0 290.91-26.42 295.43-26.42ZM290.55-33.42L290.55-33.42Q290.55-34.52 291.22-35.28 291.89-36.04 293.21-36.04 294.53-36.04 295.21-35.28 295.89-34.52 295.89-33.42 295.89-32.32 295.21-31.59 294.53-30.86 293.21-30.86 291.89-30.86 291.22-31.59 290.55-32.32 290.55-33.42ZM304.26-32.81L308.78-32.81 308.78-26.42 313.71-26.42 313.71-22.92 308.78-22.92 308.78-6.54Q308.78-4.96 309.44-4.16 310.1-3.37 311.69-3.37L311.69-3.37Q312.47-3.37 313.83-3.66L313.83-3.66 313.83 0Q312.05 0.49 310.37 0.49L310.37 0.49Q307.34 0.49 305.8-1.34 304.26-3.17 304.26-6.54L304.26-6.54 304.26-22.92 299.45-22.92 299.45-26.42 304.26-26.42 304.26-32.81ZM329.95 0.49L329.95 0.49Q324.57 0.49 321.21-3.04 317.84-6.57 317.84-12.48L317.84-12.48 317.84-13.31Q317.84-17.24 319.34-20.32 320.84-23.41 323.54-25.16 326.23-26.9 329.38-26.9L329.38-26.9Q334.54-26.9 337.39-23.51 340.25-20.12 340.25-13.79L340.25-13.79 340.25-11.91 322.35-11.91Q322.45-8.01 324.64-5.6 326.82-3.2 330.19-3.2L330.19-3.2Q332.58-3.2 334.24-4.17 335.9-5.15 337.15-6.76L337.15-6.76 339.91-4.61Q336.59 0.49 329.95 0.49ZM329.38-23.19L329.38-23.19Q326.65-23.19 324.79-21.2 322.94-19.21 322.5-15.63L322.5-15.63 335.73-15.63 335.73-15.97Q335.54-19.41 333.88-21.3 332.22-23.19 329.38-23.19Z" opacity="1" transform="matrix(1,0,0,1,0,0)" fill="#ebefd8" class="slogan-text-1" data-fill-palette-color="quaternary" id="text-1"></path></svg></g></svg></g></svg></g></svg></g><g transform="matrix(1,0,0,1,41.01902173558719,0)"><svg viewBox="0 0 131.12039775598274 131.12039775598274" height="131.12039775598274" width="131.12039775598274"><g><svg xmlns="http://www.w3.org/2000/svg" xmlns:xlink="http://www.w3.org/1999/xlink" version="1.1" x="0" y="0" viewBox="1.616 0.474 96.64699999999999 96.64699999999999" enable-background="new 0 0 100 100" xml:space="preserve" height="131.12039775598274" width="131.12039775598274" class="icon-icon-0" data-fill-palette-color="quaternary" id="icon-0"><g fill="#ebefd8" data-fill-palette-color="quaternary"><g fill="#ebefd8" data-fill-palette-color="quaternary"><path d="M12.476 59.596L1.616 48.857l10.859-10.859 37.403 10.859L12.476 59.596zM49.879 48.857L39.141 11.333 49.879 0.474 60.74 11.333 49.879 48.857zM49.879 97.121L39.141 86.262l10.738-37.404L60.74 86.262 49.879 97.121zM87.404 59.596L49.879 48.857l37.525-10.859 10.859 10.859L87.404 59.596z" fill="#ebefd8" data-fill-palette-color="quaternary"></path></g></g></svg></g></svg></g><g></g></svg></g></svg></g></svg></g></svg></g><defs></defs></svg><rect width="333.90454557049503" height="333.90454557049503" fill="none" stroke="none" visibility="hidden"></rect></g></svg></g></svg>